<svg width="72" height="59" viewBox="0 0 72 59" fill="none" xmlns="http://www.w3.org/2000/svg">
<path d="M27.5118 20.6585C26.214 20.233 24.6976 19.1155 24.2221 16.7042C23.8747 14.9485 24.5873 13.3709 25.3185 11.6684C26.2689 9.48734 27.2556 7.23563 26.2325 4.25679C25.4651 1.95189 23.619 0.427011 21.1516 0.0719116C18.9403 -0.247187 16.7654 0.515318 15.7232 1.96915C14.7186 3.38779 14.572 4.91285 15.3401 6.08279C15.7053 6.63257 16.1993 7.00484 16.8023 7.18233C16.2535 6.41982 15.8334 5.35617 16.3453 4.29183C17.186 2.55464 18.8854 1.8807 20.7678 2.53675C21.7915 2.89111 22.5591 3.61836 22.9427 4.55843C23.3264 5.48048 23.4909 7.05868 22.2479 9.32828L22.1753 9.48721C20.5485 12.4841 18.8491 15.5693 20.0368 18.5482C21.0056 18.5834 22.0109 18.9736 22.6687 19.8778C23.6006 21.1368 23.6739 22.7323 22.9976 24.3637C24.0762 23.7967 25.4651 22.644 27.5119 20.6582L27.5118 20.6585Z" fill="url(#paint0_linear_31_341)"/>
<path d="M53.776 25.9256C53.4835 25.6597 53.1909 25.429 52.9353 25.1631C52.6064 24.8619 52.2953 24.5601 52.0397 24.2763C50.6322 22.6634 51.2174 21.7766 51.5463 21.4755C52.0582 20.9789 52.9716 20.9437 53.5019 21.3692C53.6115 21.4755 53.7212 21.5819 53.776 21.7056C53.9041 21.4755 53.9041 21.1737 53.8856 20.9257C53.8123 20.1632 52.99 19.8973 52.7344 19.8441C51.9848 19.6314 50.8885 19.773 50.3402 20.5708C49.2617 22.0247 49.7914 24.1879 51.6922 26.2095C52.7708 27.3263 54.379 29.064 54.8723 31.0498C54.8908 31.1209 54.9086 31.1914 54.9086 31.2625C55.1834 32.4863 55.0004 33.8338 53.9589 35.1993C52.7707 36.7596 50.395 37.3798 48.1653 36.7064C46.1001 36.0855 44.6926 34.5432 44.254 32.4683C44.254 32.433 44.2355 32.3972 44.2355 32.3619C44.1622 32.0249 44.1259 31.6705 44.1074 31.2982C44.0895 30.9791 44.3636 30.6953 44.711 30.6774C45.0399 30.66 45.3319 30.926 45.3319 31.263C45.3319 31.4937 45.3682 31.7064 45.3867 31.9012C46.2638 32.2914 49.3706 33.373 53.5929 30.9971C53.1544 29.6489 52.0395 28.3372 50.7965 27.025C50.4676 26.6879 50.175 26.3336 49.9194 25.9786C48.366 25.6954 46.7029 24.5068 43.5961 21.4926C39.9219 17.9467 37.6922 17.9467 36.4863 17.9467H35.4995C34.2935 17.9467 32.0638 17.9467 28.3904 21.5107C25.2836 24.5075 23.6206 25.7128 22.0664 25.9967C21.8108 26.351 21.5182 26.706 21.2072 27.043C19.9642 28.3553 18.8314 29.6669 18.393 31.0151C22.6146 33.3911 25.7214 32.3095 26.5992 31.9192C26.6177 31.7244 26.654 31.5117 26.654 31.281C26.6719 30.9261 26.9644 30.6601 27.2934 30.6775C27.6408 30.6775 27.8964 30.9613 27.8785 31.2984C27.8785 31.6706 27.8237 32.0256 27.7689 32.362C27.7689 32.3973 27.7689 32.4152 27.7504 32.4505C27.2934 34.5432 25.9045 36.1034 23.8207 36.7064C21.5909 37.3799 19.2152 36.7596 18.0455 35.1994C17.0039 33.8339 16.8025 32.4863 17.0588 31.2632C17.0588 31.1921 17.0772 31.1216 17.0951 31.0504C17.5885 29.0647 19.2151 27.3449 20.2752 26.2101C22.2123 24.188 22.7242 22.0246 21.6641 20.5708C21.0974 19.7904 20.0196 19.6488 19.2515 19.8436C18.9959 19.8974 18.1736 20.1633 18.1003 20.9258C18.0818 21.1738 18.0818 21.4756 18.2099 21.7056C18.2832 21.5993 18.3559 21.475 18.5025 21.3686C19.0322 20.9431 19.9463 20.979 20.4581 21.4756C20.7685 21.7767 21.3715 22.6635 19.9647 24.2769C19.7091 24.5608 19.4165 24.8446 19.1055 25.1458C19.0691 25.1811 19.0322 25.199 19.0143 25.2163C18.7587 25.447 18.5025 25.677 18.2284 25.9256C16.3825 27.5218 14.1164 29.5075 13.897 32.4331C13.4948 37.5222 17.7535 41.4762 21.8291 41.8486C26.8546 42.3272 28.7554 39.7207 28.8288 39.6143C29.0117 39.3304 29.414 39.2599 29.688 39.4547C29.9806 39.6322 30.0533 40.0045 29.8525 40.2884C29.8155 40.3415 29.34 40.9971 28.3348 41.6532C29.9067 44.2239 31.8074 45.1108 33.818 46.0328C34.8596 46.5114 35.9196 46.9369 37.0529 47.3803C39.0997 48.1787 41.2198 49.0296 43.1569 50.2355C43.6502 50.5546 44.0888 50.9096 44.4362 51.3171C44.4547 51.3351 44.4725 51.3524 44.491 51.3882C45.131 52.1681 45.4784 53.0901 45.4236 54.0296C45.3503 55.058 44.8206 55.998 44.0709 56.3523C43.7968 56.4767 43.4864 56.5478 43.1938 56.5478C42.7738 56.5478 42.3346 56.4235 41.9508 56.1755C41.2019 55.6789 40.7812 54.828 40.8723 53.9591C41.0004 52.6468 42.042 51.8844 42.8465 51.4941C42.7368 51.4057 42.6087 51.3173 42.4627 51.2461C42.1517 51.0507 41.8413 50.8559 41.5123 50.6784C40.8909 51.0507 38.5878 52.6642 39.2462 55.5015C40.0507 58.9591 42.6272 59.0834 43.6872 58.977C45.6066 58.7642 47.0682 57.7711 47.7992 56.1756C48.6763 54.2603 48.3111 51.8313 46.8303 49.8634C45.4414 47.9835 43.468 46.8314 41.3478 45.6966C41.1648 45.5902 40.9825 45.5018 40.7996 45.3954C38.515 44.1895 36.1757 42.9131 34.2563 40.7499C31.3866 37.5051 32.2273 34.0122 32.2644 33.87C32.3377 33.5503 32.6666 33.3555 33.0134 33.4266C33.3423 33.4977 33.5431 33.8168 33.4704 34.1539C33.4519 34.225 33.2326 35.1823 33.4704 36.4945C34.0371 35.8564 34.9326 35.2181 36.1936 35.2181C37.6189 35.2181 38.4417 36.1402 38.8981 36.956C39.3003 35.3605 39.0263 34.1546 39.0078 34.1365C38.9536 33.8162 39.1544 33.4971 39.4833 33.4266C39.8122 33.3555 40.1596 33.5509 40.2329 33.87C40.2692 34.0116 41.0922 37.5223 38.241 40.7499C37.9121 41.1036 37.5647 41.4586 37.1988 41.7956C38.5329 42.8061 39.9766 43.5865 41.4027 44.3491C41.476 44.3843 41.5308 44.4196 41.6034 44.4548C42.5723 43.7634 43.3583 42.9298 44.0161 41.8841C42.7552 41.1575 42.1702 40.3418 42.1338 40.2707C41.9508 39.9869 42.0241 39.6146 42.3167 39.4371C42.5908 39.2602 42.9745 39.3307 43.1753 39.6146C43.2117 39.6678 43.742 40.395 44.948 41.0332C45.0213 41.0332 45.1124 41.0512 45.1857 41.1043C45.2406 41.1217 45.2954 41.1575 45.3502 41.2107C46.465 41.6894 48.0185 42.0443 50.1748 41.8489C54.2506 41.4766 58.5085 37.5225 58.1069 32.4335C57.8691 29.5078 55.6035 27.5217 53.776 25.9256ZM31.2048 27.9651C29.9439 27.9651 28.8288 26.3844 28.8288 25.1634C28.8288 24.0486 28.8229 23.7789 30.0138 24.2763C31.2048 24.7736 32.3852 25.3479 33.5106 25.8801C33.5106 27.1033 32.6364 27.9651 31.2048 27.9651ZM40.8 27.9651C39.5392 27.9651 38.4643 27.1033 38.4643 25.8801C39.4321 25.3477 40.7815 24.7274 41.6697 24.2763C43.0845 23.5575 43.105 23.8081 43.0845 25.1631C43.0661 26.3863 42.0424 27.9651 40.8 27.9651Z" fill="url(#paint1_linear_31_341)"/>
<path d="M53.776 25.9256C53.4835 25.6597 53.1909 25.429 52.9353 25.1631C52.6064 24.8619 52.2953 24.5601 52.0397 24.2763C50.6322 22.6634 51.2174 21.7766 51.5463 21.4755C52.0582 20.9789 52.9716 20.9437 53.5019 21.3692C53.6115 21.4755 53.7212 21.5819 53.776 21.7056C53.9041 21.4755 53.9041 21.1737 53.8856 20.9257C53.8123 20.1632 52.99 19.8973 52.7344 19.8441C51.9848 19.6314 50.8885 19.773 50.3402 20.5708C49.2617 22.0247 49.7914 24.1879 51.6922 26.2095C52.7708 27.3263 54.379 29.064 54.8723 31.0498C54.8908 31.1209 54.9086 31.1914 54.9086 31.2625C55.1834 32.4863 55.0004 33.8338 53.9589 35.1993C52.7707 36.7596 50.395 37.3798 48.1653 36.7064C46.1001 36.0855 44.6926 34.5432 44.254 32.4683C44.254 32.433 44.2355 32.3972 44.2355 32.3619C44.1622 32.0249 44.1259 31.6705 44.1074 31.2982C44.0895 30.9791 44.3636 30.6953 44.711 30.6774C45.0399 30.66 45.3319 30.926 45.3319 31.263C45.3319 31.4937 45.3682 31.7064 45.3867 31.9012C46.2638 32.2914 49.3706 33.373 53.5929 30.9971C53.1544 29.6489 52.0395 28.3372 50.7965 27.025C50.4676 26.6879 50.175 26.3336 49.9194 25.9786C48.366 25.6954 46.7029 24.5068 43.5961 21.4926C39.9219 17.9467 37.6922 17.9467 36.4863 17.9467H35.4995C34.2935 17.9467 32.0638 17.9467 28.3904 21.5107C25.2836 24.5075 23.6206 25.7128 22.0664 25.9967C21.8108 26.351 21.5182 26.706 21.2072 27.043C19.9642 28.3553 18.8314 29.6669 18.393 31.0151C22.6146 33.3911 25.7214 32.3095 26.5992 31.9192C26.6177 31.7244 26.654 31.5117 26.654 31.281C26.6719 30.9261 26.9644 30.6601 27.2934 30.6775C27.6408 30.6775 27.8964 30.9613 27.8785 31.2984C27.8785 31.6706 27.8237 32.0256 27.7689 32.362C27.7689 32.3973 27.7689 32.4152 27.7504 32.4505C27.2934 34.5432 25.9045 36.1034 23.8207 36.7064C21.5909 37.3799 19.2152 36.7596 18.0455 35.1994C17.0039 33.8339 16.8025 32.4863 17.0588 31.2632C17.0588 31.1921 17.0772 31.1216 17.0951 31.0504C17.5885 29.0647 19.2151 27.3449 20.2752 26.2101C22.2123 24.188 22.7242 22.0246 21.6641 20.5708C21.0974 19.7904 20.0196 19.6488 19.2515 19.8436C18.9959 19.8974 18.1736 20.1633 18.1003 20.9258C18.0818 21.1738 18.0818 21.4756 18.2099 21.7056C18.2832 21.5993 18.3559 21.475 18.5025 21.3686C19.0322 20.9431 19.9463 20.979 20.4581 21.4756C20.7685 21.7767 21.3715 22.6635 19.9647 24.2769C19.7091 24.5608 19.4165 24.8446 19.1055 25.1458C19.0691 25.1811 19.0322 25.199 19.0143 25.2163C18.7587 25.447 18.5025 25.677 18.2284 25.9256C16.3825 27.5218 14.1164 29.5075 13.897 32.4331C13.4948 37.5222 17.7535 41.4762 21.8291 41.8486C26.8546 42.3272 28.7554 39.7207 28.8288 39.6143C29.0117 39.3304 29.414 39.2599 29.688 39.4547C29.9806 39.6322 30.0533 40.0045 29.8525 40.2884C29.8155 40.3415 29.34 40.9971 28.3348 41.6532C29.9067 44.2239 31.8074 45.1108 33.818 46.0328C34.8596 46.5114 35.9196 46.9369 37.0529 47.3803C39.0997 48.1787 41.2198 49.0296 43.1569 50.2355C43.6502 50.5546 44.0888 50.9096 44.4362 51.3171C44.4547 51.3351 44.4725 51.3524 44.491 51.3882C45.131 52.1681 45.4784 53.0901 45.4236 54.0296C45.3503 55.058 44.8206 55.998 44.0709 56.3523C43.7968 56.4767 43.4864 56.5478 43.1938 56.5478C42.7738 56.5478 42.3346 56.4235 41.9508 56.1755C41.2019 55.6789 40.7812 54.828 40.8723 53.9591C41.0004 52.6468 42.042 51.8844 42.8465 51.4941C42.7368 51.4057 42.6087 51.3173 42.4627 51.2461C42.1517 51.0507 41.8413 50.8559 41.5123 50.6784C40.8909 51.0507 38.5878 52.6642 39.2462 55.5015C40.0507 58.9591 42.6272 59.0834 43.6872 58.977C45.6066 58.7642 47.0682 57.7711 47.7992 56.1756C48.6763 54.2603 48.3111 51.8313 46.8303 49.8634C45.4414 47.9835 43.468 46.8314 41.3478 45.6966C41.1648 45.5902 40.9825 45.5018 40.7996 45.3954C38.515 44.1895 36.1757 42.9131 34.2563 40.7499C31.3866 37.5051 32.2273 34.0122 32.2644 33.87C32.3377 33.5503 32.6666 33.3555 33.0134 33.4266C33.3423 33.4977 33.5431 33.8168 33.4704 34.1539C33.4519 34.225 33.2326 35.1823 33.4704 36.4945C34.0371 35.8564 34.9326 35.2181 36.1936 35.2181C37.6189 35.2181 38.4417 36.1402 38.8981 36.956C39.3003 35.3605 39.0263 34.1546 39.0078 34.1365C38.9536 33.8162 39.1544 33.4971 39.4833 33.4266C39.8122 33.3555 40.1596 33.5509 40.2329 33.87C40.2692 34.0116 41.0922 37.5223 38.241 40.7499C37.9121 41.1036 37.5647 41.4586 37.1988 41.7956C38.5329 42.8061 39.9766 43.5865 41.4027 44.3491C41.476 44.3843 41.5308 44.4196 41.6034 44.4548C42.5723 43.7634 43.3583 42.9298 44.0161 41.8841C42.7552 41.1575 42.1702 40.3418 42.1338 40.2707C41.9508 39.9869 42.0241 39.6146 42.3167 39.4371C42.5908 39.2602 42.9745 39.3307 43.1753 39.6146C43.2117 39.6678 43.742 40.395 44.948 41.0332C45.0213 41.0332 45.1124 41.0512 45.1857 41.1043C45.2406 41.1217 45.2954 41.1575 45.3502 41.2107C46.465 41.6894 48.0185 42.0443 50.1748 41.8489C54.2506 41.4766 58.5085 37.5225 58.1069 32.4335C57.8691 29.5078 55.6035 27.5217 53.776 25.9256ZM31.2048 27.9651C29.9439 27.9651 28.8288 26.3844 28.8288 25.1634C28.8288 24.0486 28.8229 23.7789 30.0138 24.2763C31.2048 24.7736 32.3852 25.3479 33.5106 25.8801C33.5106 27.1033 32.6364 27.9651 31.2048 27.9651ZM40.8 27.9651C39.5392 27.9651 38.4643 27.1033 38.4643 25.8801C39.4321 25.3477 40.7815 24.7274 41.6697 24.2763C43.0845 23.5575 43.105 23.8081 43.0845 25.1631C43.0661 26.3863 42.0424 27.9651 40.8 27.9651Z" fill="black"/>
<path d="M70.2611 18.7967C68.6343 17.6972 66.4416 17.6619 64.2119 18.6724C62.64 19.3997 61.2326 20.6228 59.88 21.7936C58.217 23.2648 56.6087 24.6662 54.7441 25.1448C55.8405 26.1021 57.0287 27.1837 57.9428 28.5313C58.8747 27.9994 60.8674 26.6872 62.2378 24.843C63.6082 22.9637 65.8565 20.942 67.7758 20.6941C68.4706 20.6057 69.0915 20.7293 69.5855 21.1196C70.4626 21.8109 70.8833 22.8393 70.6819 23.8677C70.6455 24.1157 70.5538 24.3464 70.4441 24.5771C70.6449 24.5059 70.8463 24.4175 71.0293 24.2759C71.559 23.9036 71.87 23.2475 71.9797 22.3606C72.1257 20.9952 71.4857 19.6476 70.2612 18.7966L70.2611 18.7967Z" fill="url(#paint2_linear_31_341)"/>
<path d="M49.9736 48.001C48.8951 48.1784 47.9446 48.3201 47.269 48.4264C47.4698 48.6571 47.6713 48.9051 47.872 49.1537C47.9817 49.2953 48.0913 49.4548 48.1825 49.5971C48.4202 49.5612 48.6395 49.508 48.8951 49.4728C50.3752 49.1716 51.6545 48.923 52.3857 48.2316C52.9709 47.6998 53.2628 47.15 53.245 46.6183C53.245 46.4766 53.2265 46.3344 53.1902 46.2107C52.642 47.0258 51.6004 47.7351 49.9737 48.0011L49.9736 48.001Z" fill="url(#paint3_linear_31_341)"/>
<path d="M28.0597 51.2986C28.4071 50.9084 28.8271 50.5361 29.339 50.217C31.002 49.1707 32.8116 48.3909 34.6207 47.6815C34.1821 47.504 33.7251 47.3092 33.2865 47.0964C32.4642 46.7415 31.642 46.3513 30.8375 45.8553C28.7729 46.9721 26.9632 48.0889 25.6475 49.8621C24.1668 51.8305 23.8016 54.2596 24.6786 56.1748C25.4098 57.7703 26.8719 58.7636 28.7906 58.9762C29.8692 59.0826 32.4278 58.9762 33.2316 55.5007C33.8894 52.6634 31.5871 51.0501 30.9655 50.6777C30.6551 50.8552 30.3262 51.05 30.0151 51.2454C29.8876 51.3165 29.7595 51.4049 29.6499 51.4934C30.4543 51.8836 31.4958 52.6282 31.624 53.9577C31.7152 54.8266 31.2951 55.6602 30.564 56.1741C30.1618 56.4406 29.7411 56.547 29.3025 56.547C28.9921 56.547 28.6995 56.4759 28.4069 56.3522C27.6573 55.9978 27.1276 55.0579 27.0728 54.0294C27.018 53.0894 27.3469 52.1673 28.0047 51.3696C28.0232 51.3516 28.0417 51.3337 28.0595 51.2985L28.0597 51.2986Z" fill="url(#paint4_linear_31_341)"/>
<path d="M28.0597 51.2986C28.4071 50.9084 28.8271 50.5361 29.339 50.217C31.002 49.1707 32.8116 48.3909 34.6207 47.6815C34.1821 47.504 33.7251 47.3092 33.2865 47.0964C32.4642 46.7415 31.642 46.3513 30.8375 45.8553C28.7729 46.9721 26.9632 48.0889 25.6475 49.8621C24.1668 51.8305 23.8016 54.2596 24.6786 56.1748C25.4098 57.7703 26.8719 58.7636 28.7906 58.9762C29.8692 59.0826 32.4278 58.9762 33.2316 55.5007C33.8894 52.6634 31.5871 51.0501 30.9655 50.6777C30.6551 50.8552 30.3262 51.05 30.0151 51.2454C29.8876 51.3165 29.7595 51.4049 29.6499 51.4934C30.4543 51.8836 31.4958 52.6282 31.624 53.9577C31.7152 54.8266 31.2951 55.6602 30.564 56.1741C30.1618 56.4406 29.7411 56.547 29.3025 56.547C28.9921 56.547 28.6995 56.4759 28.4069 56.3522C27.6573 55.9978 27.1276 55.0579 27.0728 54.0294C27.018 53.0894 27.3469 52.1673 28.0047 51.3696C28.0232 51.3516 28.0417 51.3337 28.0595 51.2985L28.0597 51.2986Z" fill="black"/>
<path d="M17.2592 25.1451C15.3769 24.6485 13.7865 23.2657 12.1049 21.7939C10.7529 20.6232 9.34554 19.4 7.79205 18.6727C5.5439 17.6622 3.35106 17.6974 1.74291 18.797C0.518413 19.6479 -0.14004 20.9955 0.0251001 22.361C0.116252 23.2478 0.44516 23.886 0.9755 24.2762C1.15844 24.4006 1.35924 24.5069 1.56065 24.5774C1.45038 24.3467 1.35922 24.1167 1.32226 23.8681C1.12147 22.8217 1.52306 21.7934 2.41865 21.1199C2.91201 20.7476 3.5335 20.606 4.22833 20.6944C6.12907 20.9604 8.39517 22.964 9.76638 24.8434C11.1368 26.7055 13.1294 27.9998 14.0429 28.5316C14.957 27.202 16.1628 26.1204 17.2592 25.1451Z" fill="url(#paint5_linear_31_341)"/>
<path d="M24.6431 49.1534C24.8254 48.9048 25.0268 48.6742 25.2461 48.4262C24.5513 48.3377 23.6194 48.1782 22.5229 48.0007C20.8962 47.7348 19.8546 47.0254 19.3058 46.2098C19.2695 46.3341 19.251 46.4758 19.251 46.6174C19.251 47.1492 19.5251 47.699 20.1102 48.2308C20.8414 48.9221 22.1206 49.1707 23.6008 49.4719C23.8386 49.5072 24.0579 49.5603 24.3135 49.6135C24.4238 49.4546 24.5335 49.313 24.6431 49.1534Z" fill="url(#paint6_linear_31_341)"/>
<path d="M56.6628 6.08322C57.4303 4.91318 57.2843 3.38824 56.2791 1.98747C55.2191 0.533575 53.0442 -0.246819 50.8329 0.0721845C48.3839 0.427157 46.5194 1.95217 45.7519 4.25706C44.7467 7.23591 45.7334 9.48761 46.666 11.6687C47.4156 13.3533 48.0913 14.9488 47.7624 16.7045C47.3054 19.1157 45.7704 20.2332 44.4727 20.6587C46.5194 22.6445 47.9084 23.7972 49.0047 24.3642C48.3105 22.7328 48.4017 21.1373 49.3158 19.8783C49.9736 18.9741 50.9787 18.5839 51.9477 18.5487C53.1352 15.5698 51.4543 12.4844 49.8277 9.4877L49.7359 9.32816C48.4935 7.05856 48.6758 5.48033 49.0417 4.5583C49.4254 3.61893 50.1929 2.89173 51.2166 2.53726C53.1173 1.88113 54.8167 2.53726 55.6576 4.27508C56.1694 5.33876 55.7309 6.40298 55.219 7.16558C55.7857 6.9881 56.2976 6.61505 56.6628 6.08322Z" fill="url(#paint7_linear_31_341)"/>
<defs>
<linearGradient id="paint0_linear_31_341" x1="21.0004" y1="-0.548054" x2="21.7328" y2="26.2894" gradientUnits="userSpaceOnUse">
<stop/>
<stop offset="0.9999"/>
<stop offset="1" stop-color="#034857" stop-opacity="0"/>
</linearGradient>
<linearGradient id="paint1_linear_31_341" x1="26.8085" y1="55.0782" x2="42.7388" y2="27.861" gradientUnits="userSpaceOnUse">
<stop stop-color="#008BA8"/>
<stop offset="0.772358" stop-color="#002830"/>
<stop offset="1" stop-color="#020D12"/>
<stop offset="1"/>
</linearGradient>
<linearGradient id="paint2_linear_31_341" x1="63.1247" y1="17.704" x2="63.2263" y2="29.376" gradientUnits="userSpaceOnUse">
<stop/>
<stop offset="0.9999"/>
<stop offset="1" stop-color="#034857" stop-opacity="0"/>
</linearGradient>
<linearGradient id="paint3_linear_31_341" x1="50.1717" y1="46.1345" x2="50.2017" y2="49.8673" gradientUnits="userSpaceOnUse">
<stop/>
<stop offset="0.9999"/>
<stop offset="1" stop-color="#034857" stop-opacity="0"/>
</linearGradient>
<linearGradient id="paint4_linear_31_341" x1="29.2653" y1="45.5596" x2="24.4861" y2="56.6979" gradientUnits="userSpaceOnUse">
<stop stop-color="#008BA8"/>
<stop offset="0.864583"/>
<stop offset="0.921875"/>
</linearGradient>
<linearGradient id="paint5_linear_31_341" x1="17.4837" y1="9.29025" x2="-3.06001" y2="32.4568" gradientUnits="userSpaceOnUse">
<stop stop-color="#056D83"/>
<stop offset="0.0001"/>
<stop offset="0.9999"/>
</linearGradient>
<linearGradient id="paint6_linear_31_341" x1="27.3911" y1="37.493" x2="18.1933" y2="50.6244" gradientUnits="userSpaceOnUse">
<stop/>
<stop offset="0.0001" stop-color="#008BA8"/>
<stop offset="0.0002"/>
<stop offset="0.9999"/>
</linearGradient>
<linearGradient id="paint7_linear_31_341" x1="50.6298" y1="-0.54663" x2="51.361" y2="26.2899" gradientUnits="userSpaceOnUse">
<stop/>
<stop offset="0.9999"/>
<stop offset="1" stop-color="#034857" stop-opacity="0"/>
</linearGradient>
</defs>
</svg>
