<?xml version="1.0" encoding="UTF-8"?>
<svg width="700pt" height="700pt" version="1.1" viewBox="0 0 700 700" xmlns="http://www.w3.org/2000/svg">
 <g>
  <path d="m298.03 224.11c-7.9531-2.6875-17.246-9.7461-20.16-24.977-2.1289-11.09 2.2383-21.055 6.7188-31.809 5.8242-13.777 11.871-28 5.6016-46.816-4.7031-14.559-16.016-24.191-31.137-26.434-13.551-2.0156-26.879 2.8008-33.266 11.984-6.1562 8.9609-7.0547 18.594-2.3477 25.984 2.2383 3.4727 5.2656 5.8242 8.9609 6.9453-3.3633-4.8164-5.9375-11.535-2.8008-18.258 5.1523-10.973 15.566-15.23 27.102-11.086 6.2734 2.2383 10.977 6.832 13.328 12.77 2.3516 5.8242 3.3594 15.793-4.2578 30.129l-0.44531 1.0039c-9.9688 18.93-20.383 38.418-13.105 57.234 5.9375 0.22266 12.098 2.6875 16.129 8.3984 5.7109 7.9531 6.1602 18.031 2.0156 28.336 6.6094-3.582 15.121-10.863 27.664-23.406z"/>
  <path d="m458.98 257.38c-1.793-1.6797-3.5859-3.1367-5.1523-4.8164-2.0156-1.9023-3.9219-3.8086-5.4883-5.6016-8.625-10.188-5.0391-15.789-3.0234-17.691 3.1367-3.1367 8.7344-3.3594 11.984-0.67188 0.67188 0.67188 1.3438 1.3438 1.6797 2.125 0.78516-1.4531 0.78516-3.3594 0.67188-4.9258-0.44922-4.8164-5.4883-6.4961-7.0547-6.832-4.5938-1.3438-11.312-0.44922-14.672 4.5898-6.6094 9.1836-3.3633 22.848 8.2852 35.617 6.6094 7.0547 16.465 18.031 19.488 30.574 0.11328 0.44922 0.22266 0.89453 0.22266 1.3438 1.6836 7.7305 0.5625 16.242-5.8203 24.867-7.2812 9.8555-21.84 13.773-35.504 9.5195-12.656-3.9219-21.281-13.664-23.969-26.77 0-0.22266-0.11328-0.44922-0.11328-0.67188-0.44922-2.1289-0.67188-4.3672-0.78516-6.7188-0.10937-2.0156 1.5703-3.8086 3.6992-3.9219 2.0156-0.10938 3.8047 1.5703 3.8047 3.6992 0 1.457 0.22266 2.8008 0.33594 4.0312 5.375 2.4648 24.414 9.2969 50.289-5.7109-2.6875-8.5156-9.5195-16.801-17.137-25.09-2.0156-2.1289-3.8086-4.3672-5.375-6.6094-9.5195-1.7891-19.711-9.2969-38.75-28.336-22.516-22.398-36.18-22.398-43.57-22.398h-6.0469c-7.3906 0-21.055 0-43.566 22.512-19.039 18.93-29.23 26.543-38.754 28.336-1.5664 2.2383-3.3594 4.4805-5.2656 6.6094-7.6172 8.2891-14.559 16.574-17.246 25.09 25.871 15.008 44.91 8.1758 50.289 5.7109 0.11328-1.2305 0.33594-2.5742 0.33594-4.0312 0.10938-2.2422 1.9023-3.9219 3.918-3.8125 2.1289 0 3.6953 1.793 3.5859 3.9219 0 2.3516-0.33594 4.5938-0.67188 6.7188 0 0.22266 0 0.33594-0.11328 0.55859-2.8008 13.219-11.312 23.074-24.082 26.883-13.664 4.2539-28.223 0.33594-35.391-9.5195-6.3828-8.625-7.6172-17.137-6.0469-24.863 0-0.44922 0.11328-0.89453 0.22266-1.3438 3.0234-12.543 12.992-23.406 19.488-30.574 11.871-12.773 15.008-26.438 8.5117-35.621-3.4727-4.9297-10.078-5.8242-14.785-4.5938-1.5664 0.33984-6.6055 2.0195-7.0547 6.8359-0.11328 1.5664-0.11328 3.4727 0.67188 4.9258 0.44922-0.67188 0.89453-1.457 1.793-2.1289 3.2461-2.6875 8.8477-2.4609 11.984 0.67578 1.9023 1.9023 5.5977 7.5039-3.0234 17.695-1.5664 1.793-3.3594 3.5859-5.2656 5.4883-0.22266 0.22266-0.44922 0.33594-0.55859 0.44531-1.5664 1.457-3.1367 2.9102-4.8164 4.4805-11.312 10.082-25.199 22.625-26.543 41.105-2.4648 32.145 23.633 57.121 48.609 59.473 30.797 3.0234 42.445-13.441 42.895-14.113 1.1211-1.793 3.5859-2.2383 5.2656-1.0078 1.793 1.1211 2.2383 3.4727 1.0078 5.2656-0.22656 0.33594-3.1406 4.4766-9.3008 8.6211 9.6328 16.238 21.281 21.84 33.602 27.664 6.3828 3.0234 12.879 5.7109 19.824 8.5117 12.543 5.043 25.535 10.418 37.406 18.035 3.0234 2.0156 5.7109 4.2578 7.8398 6.832 0.11328 0.11328 0.22266 0.22266 0.33594 0.44922 3.9219 4.9258 6.0508 10.75 5.7148 16.684-0.44922 6.4961-3.6953 12.434-8.2891 14.672-1.6797 0.78516-3.582 1.2344-5.375 1.2344-2.5742 0-5.2656-0.78516-7.6172-2.3516-4.5898-3.1367-7.168-8.5117-6.6094-14 0.78516-8.2891 7.168-13.105 12.098-15.57-0.67188-0.55859-1.457-1.1172-2.3516-1.5664-1.9062-1.2344-3.8086-2.4648-5.8242-3.5859-3.8086 2.3516-17.922 12.543-13.887 30.465 4.9297 21.84 20.719 22.625 27.215 21.953 11.762-1.3438 20.719-7.6172 25.199-17.695 5.375-12.098 3.1367-27.441-5.9375-39.871-8.5117-11.875-20.605-19.152-33.598-26.32-1.1211-0.67187-2.2383-1.2305-3.3594-1.9023-14-7.6172-28.336-15.68-40.098-29.344-17.586-20.496-12.434-42.559-12.207-43.457 0.44922-2.0195 2.4648-3.25 4.5898-2.8008 2.0156 0.44922 3.2461 2.4648 2.8008 4.5938-0.11328 0.44922-1.457 6.4961 0 14.785 3.4727-4.0312 8.9609-8.0625 16.688-8.0625 8.7344 0 13.777 5.8242 16.574 10.977 2.4648-10.078 0.78516-17.695 0.67187-17.809-0.33203-2.0234 0.89844-4.0391 2.9141-4.4844 2.0156-0.44922 4.1445 0.78516 4.5938 2.8008 0.22266 0.89453 5.2656 23.07-12.207 43.457-2.0156 2.2344-4.1445 4.4766-6.3867 6.6055 8.1758 6.3828 17.023 11.312 25.762 16.129 0.44922 0.22266 0.78516 0.44531 1.2305 0.66797 5.9375-4.3672 10.754-9.6328 14.785-16.238-7.7266-4.5898-11.312-9.7422-11.535-10.191-1.1211-1.793-0.67187-4.1445 1.1211-5.2656 1.6797-1.1172 4.0312-0.67188 5.2617 1.1211 0.22266 0.33594 3.4727 4.9297 10.863 8.9609 0.44922 0 1.0078 0.11328 1.457 0.44922 0.33594 0.10938 0.67187 0.33594 1.0078 0.67188 6.832 3.0234 16.352 5.2656 29.566 4.0312 24.977-2.3516 51.07-27.328 48.609-59.473-1.457-18.48-15.344-31.023-26.543-41.105zm-138.32 12.883c-7.7266 0-14-6.2734-14-14 0-7.7266 6.2734-14 14-14s14 6.2734 14 14c0 7.7266-6.2734 14-14 14zm58.801 0c-7.7266 0-14-6.2734-14-14 0-7.7266 6.2734-14 14-14 7.6172 0 14 6.2734 14 14-0.11328 7.7266-6.3867 14-14 14z"/>
  <path d="m560 212.35c-9.9688-6.9453-23.406-7.168-37.07-0.78516-9.6328 4.5938-18.258 12.32-26.547 19.715-10.191 9.293-20.047 18.145-31.473 21.168 6.7188 6.0469 14 12.879 19.602 21.391 5.7109-3.3594 17.922-11.648 26.32-23.297 8.3984-11.871 22.176-24.641 33.938-26.207 4.2578-0.55859 8.0625 0.22266 11.09 2.6875 5.375 4.3672 7.9531 10.863 6.7188 17.359-0.22266 1.5664-0.78516 3.0234-1.457 4.4805 1.2305-0.44922 2.4648-1.0078 3.5859-1.9023 3.2461-2.3516 5.1523-6.4961 5.8242-12.098 0.89453-8.625-3.0273-17.137-10.531-22.512z"/>
  <path d="m435.68 396.82c-6.6094 1.1211-12.434 2.0156-16.574 2.6875 1.2305 1.457 2.4648 3.0234 3.6953 4.5938 0.67188 0.89453 1.3438 1.9023 1.9023 2.8008 1.457-0.22656 2.8008-0.5625 4.3672-0.78516 9.0703-1.9023 16.91-3.4727 21.391-7.8398 3.5859-3.3594 5.375-6.832 5.2656-10.191 0-0.89453-0.11328-1.793-0.33594-2.5742-3.3594 5.1484-9.7422 9.6289-19.711 11.309z"/>
  <path d="m301.39 417.65c2.1289-2.4648 4.7031-4.8164 7.8398-6.832 10.191-6.6094 21.281-11.535 32.367-16.016-2.6875-1.1211-5.4883-2.3516-8.1758-3.6953-5.0391-2.2422-10.078-4.707-15.008-7.8398-12.652 7.0547-23.742 14.109-31.805 25.309-9.0742 12.434-11.312 27.777-5.9375 39.875 4.4805 10.078 13.441 16.352 25.199 17.695 6.6094 0.67188 22.289 0 27.215-21.953 4.0312-17.922-10.078-28.113-13.887-30.465-1.9023 1.1211-3.918 2.3516-5.8242 3.5859-0.78125 0.44922-1.5664 1.0078-2.2383 1.5664 4.9297 2.4648 11.312 7.168 12.098 15.566 0.55859 5.4883-2.0156 10.754-6.4961 14-2.4648 1.6836-5.043 2.3555-7.7305 2.3555-1.9023 0-3.6953-0.44922-5.4883-1.2305-4.5938-2.2383-7.8398-8.1758-8.1758-14.672-0.33594-5.9375 1.6797-11.762 5.7109-16.801 0.11328-0.11328 0.22656-0.22656 0.33594-0.44922z"/>
  <path d="m235.2 252.45c-11.535-3.1367-21.281-11.871-31.586-21.168-8.2852-7.3945-16.91-15.121-26.43-19.715-13.777-6.3828-27.215-6.1602-37.07 0.78516-7.5039 5.375-11.539 13.887-10.527 22.512 0.55859 5.6016 2.5742 9.6328 5.8242 12.098 1.1211 0.78516 2.3516 1.457 3.5859 1.9023-0.67578-1.457-1.2344-2.9102-1.4609-4.4805-1.2305-6.6094 1.2305-13.105 6.7188-17.359 3.0234-2.3516 6.832-3.2461 11.09-2.6875 11.648 1.6797 25.535 14.336 33.938 26.207 8.3984 11.762 20.609 19.938 26.207 23.297 5.6016-8.3984 12.992-15.23 19.711-21.391z"/>
  <path d="m280.45 404.1c1.1172-1.5703 2.3516-3.0273 3.6953-4.5938-4.2578-0.55859-9.9688-1.5664-16.688-2.6875-9.9688-1.6797-16.352-6.1602-19.715-11.312-0.22266 0.78516-0.33594 1.6797-0.33594 2.5742 0 3.3594 1.6797 6.832 5.2656 10.191 4.4805 4.3672 12.32 5.9375 21.391 7.8398 1.457 0.22266 2.8008 0.55859 4.3672 0.89453 0.67578-1.0039 1.3477-1.8984 2.0195-2.9062z"/>
  <path d="m476.67 132.05c4.7031-7.3906 3.8086-17.023-2.3516-25.871-6.4961-9.1836-19.824-14.113-33.375-12.098-15.008 2.2422-26.434 11.875-31.137 26.434-6.1602 18.816-0.11328 33.039 5.6016 46.816 4.5938 10.641 8.7344 20.719 6.7188 31.809-2.8008 15.23-12.207 22.289-20.16 24.977 12.543 12.543 21.055 19.824 27.773 23.406-4.2539-10.305-3.6953-20.383 1.9062-28.336 4.0312-5.7109 10.191-8.1758 16.129-8.3984 7.2773-18.816-3.0234-38.305-12.992-57.234l-0.5625-1.0078c-7.6133-14.336-6.4961-24.305-4.2539-30.129 2.3516-5.9336 7.0547-10.527 13.328-12.766 11.648-4.1445 22.062 0 27.215 10.977 3.1367 6.7188 0.44922 13.441-2.6875 18.258 3.4727-1.1211 6.6094-3.4766 8.8477-6.8359z"/>
 </g>
</svg>
