<svg width="55" height="43" viewBox="0 0 55 43" fill="none" xmlns="http://www.w3.org/2000/svg">
<path d="M21.0159 15.0562C20.0245 14.7461 18.8662 13.9317 18.5029 12.1743C18.2375 10.8947 18.7819 9.74493 19.3404 8.50411C20.0664 6.9145 20.8202 5.27343 20.0387 3.10241C19.4524 1.42257 18.0422 0.311211 16.1574 0.0524102C14.4682 -0.180153 12.8068 0.375571 12.0107 1.43514C11.2433 2.46907 11.1313 3.58055 11.718 4.43322C11.997 4.83391 12.3744 5.10523 12.835 5.23458C12.4158 4.67886 12.0949 3.90365 12.4859 3.12794C13.1281 1.86186 14.4262 1.37068 15.8642 1.84882C16.6462 2.10708 17.2325 2.63711 17.5256 3.32224C17.8187 3.99425 17.9444 5.14447 16.9949 6.79858L16.9394 6.91441C15.6967 9.09858 14.3985 11.3471 15.3058 13.5182C16.0459 13.5438 16.8138 13.8282 17.3163 14.4872C18.0282 15.4048 18.0842 16.5676 17.5676 17.7566C18.3914 17.3433 19.4524 16.5032 21.016 15.056L21.0159 15.0562Z" fill="url(#paint0_linear_31_341)"/>
<path d="M41.0792 18.8949C40.8557 18.7011 40.6322 18.533 40.4369 18.3392C40.1857 18.1197 39.948 17.8998 39.7528 17.6929C38.6777 16.5174 39.1246 15.8711 39.3759 15.6517C39.7669 15.2897 40.4647 15.2641 40.8698 15.5741C40.9535 15.6517 41.0373 15.7292 41.0791 15.8193C41.177 15.6517 41.177 15.4317 41.1629 15.251C41.1069 14.6953 40.4788 14.5015 40.2835 14.4627C39.7109 14.3076 38.8734 14.4109 38.4546 14.9923C37.6307 16.0519 38.0353 17.6285 39.4874 19.1018C40.3112 19.9158 41.5398 21.1823 41.9166 22.6295C41.9307 22.6813 41.9444 22.7327 41.9444 22.7845C42.1542 23.6765 42.0145 24.6586 41.2188 25.6537C40.3112 26.7909 38.4964 27.2429 36.7932 26.7521C35.2155 26.2996 34.1404 25.1755 33.8053 23.6634C33.8053 23.6377 33.7912 23.6115 33.7912 23.5858C33.7352 23.3402 33.7075 23.0819 33.6933 22.8106C33.6797 22.578 33.8891 22.3712 34.1545 22.3581C34.4057 22.3455 34.6287 22.5393 34.6287 22.7849C34.6287 22.953 34.6565 23.1081 34.6706 23.25C35.3406 23.5344 37.7139 24.3227 40.9393 22.5911C40.6043 21.6086 39.7527 20.6526 38.8031 19.6962C38.5519 19.4505 38.3284 19.1923 38.1331 18.9336C36.9465 18.7271 35.6761 17.8609 33.3028 15.6641C30.4961 13.0798 28.7928 13.0798 27.8717 13.0798H27.1179C26.1966 13.0798 24.4933 13.0798 21.6872 15.6773C19.314 17.8614 18.0436 18.7398 16.8564 18.9467C16.6612 19.205 16.4377 19.4637 16.2001 19.7093C15.2506 20.6657 14.3852 21.6217 14.0503 22.6043C17.2752 24.3359 19.6485 23.5476 20.319 23.2632C20.3331 23.1212 20.3609 22.9662 20.3609 22.7981C20.3745 22.5394 20.598 22.3455 20.8492 22.3582C21.1146 22.3582 21.3099 22.565 21.2962 22.8107C21.2962 23.082 21.2544 23.3407 21.2125 23.5859C21.2125 23.6116 21.2125 23.6247 21.1984 23.6504C20.8492 25.1756 19.7883 26.3127 18.1965 26.7522C16.4932 27.243 14.6784 26.7909 13.7849 25.6538C12.9892 24.6586 12.8354 23.6765 13.0311 22.7851C13.0311 22.7332 13.0452 22.6818 13.0589 22.63C13.4357 21.1828 14.6784 19.9294 15.4881 19.1023C16.9679 17.6286 17.3589 16.0519 16.5491 14.9923C16.1162 14.4235 15.2929 14.3203 14.7061 14.4623C14.5109 14.5015 13.8827 14.6953 13.8267 15.251C13.8126 15.4318 13.8126 15.6517 13.9105 15.8194C13.9665 15.7418 14.022 15.6513 14.134 15.5737C14.5386 15.2636 15.2369 15.2898 15.6278 15.6517C15.865 15.8712 16.3256 16.5175 15.2509 17.6934C15.0557 17.9003 14.8322 18.1071 14.5946 18.3266C14.5668 18.3523 14.5386 18.3654 14.5249 18.378C14.3297 18.5461 14.1339 18.7138 13.9246 18.895C12.5145 20.0583 10.7834 21.5055 10.6159 23.6377C10.3087 27.3467 13.5618 30.2284 16.6752 30.4998C20.5141 30.8487 21.9661 28.949 22.0222 28.8714C22.1619 28.6646 22.4692 28.6132 22.6785 28.7552C22.902 28.8845 22.9575 29.1558 22.8042 29.3627C22.7759 29.4015 22.4127 29.8792 21.6448 30.3574C22.8455 32.231 24.2975 32.8774 25.8334 33.5493C26.629 33.8982 27.4388 34.2083 28.3045 34.5314C29.868 35.1133 31.4875 35.7335 32.9673 36.6124C33.3442 36.8449 33.6792 37.1036 33.9445 37.4006C33.9587 37.4137 33.9723 37.4263 33.9864 37.4525C34.4753 38.0208 34.7407 38.6928 34.6988 39.3775C34.6428 40.127 34.2381 40.8122 33.6655 41.0704C33.4561 41.161 33.219 41.2128 32.9955 41.2128C32.6746 41.2128 32.3391 41.1222 32.046 40.9415C31.4739 40.5796 31.1525 39.9594 31.2221 39.3261C31.32 38.3697 32.1156 37.8141 32.7302 37.5296C32.6464 37.4652 32.5485 37.4007 32.437 37.3489C32.1994 37.2065 31.9623 37.0645 31.711 36.9352C31.2363 37.2065 29.477 38.3824 29.98 40.4503C30.5945 42.9702 32.5627 43.0608 33.3724 42.9832C34.8386 42.8282 35.9551 42.1043 36.5135 40.9416C37.1835 39.5457 36.9045 37.7754 35.7734 36.3412C34.7124 34.971 33.2049 34.1314 31.5853 33.3043C31.4456 33.2268 31.3063 33.1623 31.1666 33.0848C29.4214 32.206 27.6344 31.2757 26.1682 29.6991C23.9761 27.3342 24.6183 24.7886 24.6466 24.6849C24.7026 24.4519 24.9538 24.31 25.2187 24.3618C25.47 24.4136 25.6233 24.6462 25.5678 24.8918C25.5537 24.9437 25.3862 25.6414 25.5678 26.5977C26.0007 26.1326 26.6848 25.6675 27.648 25.6675C28.7368 25.6675 29.3654 26.3395 29.714 26.934C30.0213 25.7712 29.8119 24.8923 29.7978 24.8792C29.7564 24.6457 29.9098 24.4131 30.161 24.3618C30.4123 24.3099 30.6777 24.4524 30.7337 24.6849C30.7614 24.7881 31.3901 27.3468 29.212 29.6991C28.9608 29.9569 28.6954 30.2156 28.4159 30.4612C29.4351 31.1977 30.5379 31.7664 31.6272 32.3222C31.6832 32.3479 31.7251 32.3736 31.7806 32.3993C32.5207 31.8954 33.1211 31.2878 33.6236 30.5257C32.6605 29.9961 32.2135 29.4016 32.1857 29.3499C32.046 29.143 32.102 28.8717 32.3255 28.7423C32.5349 28.6134 32.828 28.6648 32.9814 28.8717C33.0091 28.9104 33.4143 29.4405 34.3355 29.9056C34.3915 29.9056 34.4611 29.9187 34.5171 29.9574C34.559 29.97 34.6009 29.9962 34.6427 30.0349C35.4944 30.3838 36.6811 30.6425 38.3282 30.5001C41.4417 30.2287 44.6943 27.3469 44.3875 23.638C44.2059 21.5057 42.4752 20.0582 41.0792 18.8949ZM23.8371 20.3814C22.874 20.3814 22.0222 19.2294 22.0222 18.3395C22.0222 17.527 22.0176 17.3304 22.9274 17.6929C23.8371 18.0554 24.7389 18.4739 25.5985 18.8618C25.5985 19.7533 24.9308 20.3814 23.8371 20.3814ZM31.1669 20.3814C30.2037 20.3814 29.3827 19.7533 29.3827 18.8618C30.122 18.4738 31.1528 18.0217 31.8312 17.6929C32.912 17.1691 32.9277 17.3517 32.912 18.3392C32.8979 19.2307 32.1159 20.3814 31.1669 20.3814Z" fill="url(#paint1_linear_31_341)"/>
<path d="M41.0792 18.8949C40.8557 18.7011 40.6322 18.533 40.4369 18.3392C40.1857 18.1197 39.948 17.8998 39.7528 17.6929C38.6777 16.5174 39.1246 15.8711 39.3759 15.6517C39.7669 15.2897 40.4647 15.2641 40.8698 15.5741C40.9535 15.6517 41.0373 15.7292 41.0791 15.8193C41.177 15.6517 41.177 15.4317 41.1629 15.251C41.1069 14.6953 40.4788 14.5015 40.2835 14.4627C39.7109 14.3076 38.8734 14.4109 38.4546 14.9923C37.6307 16.0519 38.0353 17.6285 39.4874 19.1018C40.3112 19.9158 41.5398 21.1823 41.9166 22.6295C41.9307 22.6813 41.9444 22.7327 41.9444 22.7845C42.1542 23.6765 42.0145 24.6586 41.2188 25.6537C40.3112 26.7909 38.4964 27.2429 36.7932 26.7521C35.2155 26.2996 34.1404 25.1755 33.8053 23.6634C33.8053 23.6377 33.7912 23.6115 33.7912 23.5858C33.7352 23.3402 33.7075 23.0819 33.6933 22.8106C33.6797 22.578 33.8891 22.3712 34.1545 22.3581C34.4057 22.3455 34.6287 22.5393 34.6287 22.7849C34.6287 22.953 34.6565 23.1081 34.6706 23.25C35.3406 23.5344 37.7139 24.3227 40.9393 22.5911C40.6043 21.6086 39.7527 20.6526 38.8031 19.6962C38.5519 19.4505 38.3284 19.1923 38.1331 18.9336C36.9465 18.7271 35.6761 17.8609 33.3028 15.6641C30.4961 13.0798 28.7928 13.0798 27.8717 13.0798H27.1179C26.1966 13.0798 24.4933 13.0798 21.6872 15.6773C19.314 17.8614 18.0436 18.7398 16.8564 18.9467C16.6612 19.205 16.4377 19.4637 16.2001 19.7093C15.2506 20.6657 14.3852 21.6217 14.0503 22.6043C17.2752 24.3359 19.6485 23.5476 20.319 23.2632C20.3331 23.1212 20.3609 22.9662 20.3609 22.7981C20.3745 22.5394 20.598 22.3455 20.8492 22.3582C21.1146 22.3582 21.3099 22.565 21.2962 22.8107C21.2962 23.082 21.2544 23.3407 21.2125 23.5859C21.2125 23.6116 21.2125 23.6247 21.1984 23.6504C20.8492 25.1756 19.7883 26.3127 18.1965 26.7522C16.4932 27.243 14.6784 26.7909 13.7849 25.6538C12.9892 24.6586 12.8354 23.6765 13.0311 22.7851C13.0311 22.7332 13.0452 22.6818 13.0589 22.63C13.4357 21.1828 14.6784 19.9294 15.4881 19.1023C16.9679 17.6286 17.3589 16.0519 16.5491 14.9923C16.1162 14.4235 15.2929 14.3203 14.7061 14.4623C14.5109 14.5015 13.8827 14.6953 13.8267 15.251C13.8126 15.4318 13.8126 15.6517 13.9105 15.8194C13.9665 15.7418 14.022 15.6513 14.134 15.5737C14.5386 15.2636 15.2369 15.2898 15.6278 15.6517C15.865 15.8712 16.3256 16.5175 15.2509 17.6934C15.0557 17.9003 14.8322 18.1071 14.5946 18.3266C14.5668 18.3523 14.5386 18.3654 14.5249 18.378C14.3297 18.5461 14.1339 18.7138 13.9246 18.895C12.5145 20.0583 10.7834 21.5055 10.6159 23.6377C10.3087 27.3467 13.5618 30.2284 16.6752 30.4998C20.5141 30.8487 21.9661 28.949 22.0222 28.8714C22.1619 28.6646 22.4692 28.6132 22.6785 28.7552C22.902 28.8845 22.9575 29.1558 22.8042 29.3627C22.7759 29.4015 22.4127 29.8792 21.6448 30.3574C22.8455 32.231 24.2975 32.8774 25.8334 33.5493C26.629 33.8982 27.4388 34.2083 28.3045 34.5314C29.868 35.1133 31.4875 35.7335 32.9673 36.6124C33.3442 36.8449 33.6792 37.1036 33.9445 37.4006C33.9587 37.4137 33.9723 37.4263 33.9864 37.4525C34.4753 38.0208 34.7407 38.6928 34.6988 39.3775C34.6428 40.127 34.2381 40.8122 33.6655 41.0704C33.4561 41.161 33.219 41.2128 32.9955 41.2128C32.6746 41.2128 32.3391 41.1222 32.046 40.9415C31.4739 40.5796 31.1525 39.9594 31.2221 39.3261C31.32 38.3697 32.1156 37.8141 32.7302 37.5296C32.6464 37.4652 32.5485 37.4007 32.437 37.3489C32.1994 37.2065 31.9623 37.0645 31.711 36.9352C31.2363 37.2065 29.477 38.3824 29.98 40.4503C30.5945 42.9702 32.5627 43.0608 33.3724 42.9832C34.8386 42.8282 35.9551 42.1043 36.5135 40.9416C37.1835 39.5457 36.9045 37.7754 35.7734 36.3412C34.7124 34.971 33.2049 34.1314 31.5853 33.3043C31.4456 33.2268 31.3063 33.1623 31.1666 33.0848C29.4214 32.206 27.6344 31.2757 26.1682 29.6991C23.9761 27.3342 24.6183 24.7886 24.6466 24.6849C24.7026 24.4519 24.9538 24.31 25.2187 24.3618C25.47 24.4136 25.6233 24.6462 25.5678 24.8918C25.5537 24.9437 25.3862 25.6414 25.5678 26.5977C26.0007 26.1326 26.6848 25.6675 27.648 25.6675C28.7368 25.6675 29.3654 26.3395 29.714 26.934C30.0213 25.7712 29.8119 24.8923 29.7978 24.8792C29.7564 24.6457 29.9098 24.4131 30.161 24.3618C30.4123 24.3099 30.6777 24.4524 30.7337 24.6849C30.7614 24.7881 31.3901 27.3468 29.212 29.6991C28.9608 29.9569 28.6954 30.2156 28.4159 30.4612C29.4351 31.1977 30.5379 31.7664 31.6272 32.3222C31.6832 32.3479 31.7251 32.3736 31.7806 32.3993C32.5207 31.8954 33.1211 31.2878 33.6236 30.5257C32.6605 29.9961 32.2135 29.4016 32.1857 29.3499C32.046 29.143 32.102 28.8717 32.3255 28.7423C32.5349 28.6134 32.828 28.6648 32.9814 28.8717C33.0091 28.9104 33.4143 29.4405 34.3355 29.9056C34.3915 29.9056 34.4611 29.9187 34.5171 29.9574C34.559 29.97 34.6009 29.9962 34.6427 30.0349C35.4944 30.3838 36.6811 30.6425 38.3282 30.5001C41.4417 30.2287 44.6943 27.3469 44.3875 23.638C44.2059 21.5057 42.4752 20.0582 41.0792 18.8949ZM23.8371 20.3814C22.874 20.3814 22.0222 19.2294 22.0222 18.3395C22.0222 17.527 22.0176 17.3304 22.9274 17.6929C23.8371 18.0554 24.7389 18.4739 25.5985 18.8618C25.5985 19.7533 24.9308 20.3814 23.8371 20.3814ZM31.1669 20.3814C30.2037 20.3814 29.3827 19.7533 29.3827 18.8618C30.122 18.4738 31.1528 18.0217 31.8312 17.6929C32.912 17.1691 32.9277 17.3517 32.912 18.3392C32.8979 19.2307 32.1159 20.3814 31.1669 20.3814Z" fill="black"/>
<path d="M53.6716 13.6993C52.429 12.8979 50.754 12.8722 49.0507 13.6087C47.85 14.1387 46.7748 15.0302 45.7416 15.8834C44.4712 16.9557 43.2426 17.977 41.8184 18.3258C42.6559 19.0235 43.5635 19.8118 44.2618 20.794C44.9737 20.4063 46.4958 19.45 47.5427 18.1059C48.5896 16.7362 50.307 15.2628 51.7732 15.0821C52.3039 15.0177 52.7782 15.1078 53.1556 15.3922C53.8256 15.8961 54.1469 16.6456 53.9931 17.3951C53.9653 17.5758 53.8952 17.744 53.8115 17.9121C53.9649 17.8602 54.1187 17.7958 54.2585 17.6926C54.6631 17.4213 54.9007 16.9431 54.9845 16.2967C55.096 15.3015 54.6071 14.3194 53.6717 13.6992L53.6716 13.6993Z" fill="url(#paint2_linear_31_341)"/>
<path d="M38.1744 34.9837C37.3505 35.1131 36.6245 35.2163 36.1084 35.2938C36.2618 35.4619 36.4156 35.6427 36.569 35.8239C36.6528 35.9271 36.7365 36.0433 36.8062 36.147C36.9878 36.1209 37.1553 36.0821 37.3505 36.0564C38.4812 35.8369 39.4584 35.6557 40.017 35.1519C40.464 34.7642 40.687 34.3636 40.6734 33.976C40.6734 33.8728 40.6593 33.7691 40.6315 33.679C40.2127 34.273 39.4171 34.79 38.1745 34.9838L38.1744 34.9837Z" fill="url(#paint3_linear_31_341)"/>
<path d="M21.435 37.3871C21.7004 37.1027 22.0213 36.8314 22.4123 36.5988C23.6826 35.8362 25.065 35.2679 26.4469 34.7509C26.1119 34.6215 25.7628 34.4796 25.4278 34.3245C24.7997 34.0658 24.1716 33.7814 23.557 33.42C21.9799 34.2339 20.5975 35.0479 19.5924 36.3401C18.4613 37.7748 18.1823 39.5451 18.8523 40.941C19.4108 42.1038 20.5278 42.8277 21.9934 42.9827C22.8173 43.0602 24.7718 42.9827 25.3859 40.4497C25.8884 38.3818 24.1296 37.206 23.6548 36.9346C23.4177 37.0639 23.1664 37.2059 22.9288 37.3483C22.8314 37.4002 22.7335 37.4646 22.6498 37.5291C23.2643 37.8135 24.0599 38.3561 24.1578 39.3251C24.2275 39.9584 23.9066 40.5659 23.3481 40.9404C23.0408 41.1347 22.7195 41.2122 22.3844 41.2122C22.1473 41.2122 21.9238 41.1604 21.7003 41.0702C21.1277 40.812 20.7231 40.1269 20.6812 39.3774C20.6393 38.6923 20.8906 38.0203 21.3931 37.4388C21.4072 37.4258 21.4213 37.4127 21.4349 37.387L21.435 37.3871Z" fill="url(#paint4_linear_31_341)"/>
<path d="M21.435 37.3871C21.7004 37.1027 22.0213 36.8314 22.4123 36.5988C23.6826 35.8362 25.065 35.2679 26.4469 34.7509C26.1119 34.6215 25.7628 34.4796 25.4278 34.3245C24.7997 34.0658 24.1716 33.7814 23.557 33.42C21.9799 34.2339 20.5975 35.0479 19.5924 36.3401C18.4613 37.7748 18.1823 39.5451 18.8523 40.941C19.4108 42.1038 20.5278 42.8277 21.9934 42.9827C22.8173 43.0602 24.7718 42.9827 25.3859 40.4497C25.8884 38.3818 24.1296 37.206 23.6548 36.9346C23.4177 37.0639 23.1664 37.2059 22.9288 37.3483C22.8314 37.4002 22.7335 37.4646 22.6498 37.5291C23.2643 37.8135 24.0599 38.3561 24.1578 39.3251C24.2275 39.9584 23.9066 40.5659 23.3481 40.9404C23.0408 41.1347 22.7195 41.2122 22.3844 41.2122C22.1473 41.2122 21.9238 41.1604 21.7003 41.0702C21.1277 40.812 20.7231 40.1269 20.6812 39.3774C20.6393 38.6923 20.8906 38.0203 21.3931 37.4388C21.4072 37.4258 21.4213 37.4127 21.4349 37.387L21.435 37.3871Z" fill="black"/>
<path d="M13.1842 18.3261C11.7463 17.9642 10.5314 16.9564 9.24687 15.8837C8.21409 15.0305 7.13899 14.139 5.95229 13.6089C4.23494 12.8725 2.55985 12.8982 1.3314 13.6995C0.396012 14.3197 -0.106975 15.3018 0.0191738 16.297C0.0888038 16.9433 0.340054 17.4084 0.745177 17.6929C0.884926 17.7835 1.03831 17.861 1.19217 17.9124C1.10793 17.7443 1.0383 17.5766 1.01007 17.3954C0.856679 16.6328 1.16345 15.8833 1.84759 15.3925C2.22446 15.1212 2.69922 15.018 3.22999 15.0824C4.68195 15.2762 6.41301 16.7365 7.46047 18.1062C8.50735 19.4633 10.0294 20.4067 10.7273 20.7943C11.4255 19.8252 12.3466 19.0369 13.1842 18.3261Z" fill="url(#paint5_linear_31_341)"/>
<path d="M18.8251 35.8237C18.9643 35.6425 19.1182 35.4744 19.2857 35.2937C18.7549 35.2292 18.043 35.1129 17.2055 34.9836C15.9628 34.7898 15.1671 34.2728 14.7479 33.6784C14.7202 33.769 14.7061 33.8722 14.7061 33.9754C14.7061 34.363 14.9154 34.7637 15.3624 35.1512C15.9209 35.6551 16.8982 35.8363 18.0289 36.0558C18.2105 36.0815 18.378 36.1203 18.5733 36.159C18.6575 36.0432 18.7413 35.94 18.8251 35.8237Z" fill="url(#paint6_linear_31_341)"/>
<path d="M43.2842 4.43361C43.8704 3.58087 43.7589 2.46947 42.991 1.44857C42.1813 0.388953 40.5199 -0.179809 38.8307 0.0526845C36.9599 0.311393 35.5356 1.42284 34.9494 3.10268C34.1815 5.2737 34.9353 6.91477 35.6477 8.50439C36.2203 9.73216 36.7364 10.895 36.4852 12.1746C36.136 13.9318 34.9635 14.7463 33.9722 15.0564C35.5357 16.5037 36.5967 17.3438 37.4342 17.7571C36.9039 16.5681 36.9735 15.4052 37.6718 14.4876C38.1743 13.8287 38.9421 13.5443 39.6823 13.5186C40.5894 11.3476 39.3054 9.0989 38.0628 6.91484L37.9927 6.79856C37.0437 5.14445 37.1829 3.99421 37.4624 3.32223C37.7556 2.6376 38.3418 2.10761 39.1238 1.84927C40.5758 1.37107 41.8739 1.84927 42.5162 3.11581C42.9072 3.89104 42.5722 4.66666 42.1812 5.22245C42.6141 5.09309 43.0051 4.82121 43.2842 4.43361Z" fill="url(#paint7_linear_31_341)"/>
<defs>
<linearGradient id="paint0_linear_31_341" x1="16.0419" y1="-0.39943" x2="16.5512" y2="19.1614" gradientUnits="userSpaceOnUse">
<stop/>
<stop offset="0.9999"/>
<stop offset="1" stop-color="#034857" stop-opacity="0"/>
</linearGradient>
<linearGradient id="paint1_linear_31_341" x1="20.4789" y1="40.1418" x2="31.8155" y2="19.8407" gradientUnits="userSpaceOnUse">
<stop stop-color="#008BA8"/>
<stop offset="0.772358" stop-color="#002830"/>
<stop offset="1" stop-color="#020D12"/>
<stop offset="1"/>
</linearGradient>
<linearGradient id="paint2_linear_31_341" x1="48.2202" y1="12.9029" x2="48.2909" y2="21.4097" gradientUnits="userSpaceOnUse">
<stop/>
<stop offset="0.9999"/>
<stop offset="1" stop-color="#034857" stop-opacity="0"/>
</linearGradient>
<linearGradient id="paint3_linear_31_341" x1="38.3257" y1="33.6235" x2="38.3466" y2="36.344" gradientUnits="userSpaceOnUse">
<stop/>
<stop offset="0.9999"/>
<stop offset="1" stop-color="#034857" stop-opacity="0"/>
</linearGradient>
<linearGradient id="paint4_linear_31_341" x1="22.356" y1="33.2045" x2="18.9858" y2="41.4371" gradientUnits="userSpaceOnUse">
<stop stop-color="#008BA8"/>
<stop offset="0.864583"/>
<stop offset="0.921875"/>
</linearGradient>
<linearGradient id="paint5_linear_31_341" x1="13.3557" y1="6.77089" x2="-1.5168" y2="24.3494" gradientUnits="userSpaceOnUse">
<stop stop-color="#056D83"/>
<stop offset="0.0001"/>
<stop offset="0.9999"/>
</linearGradient>
<linearGradient id="paint6_linear_31_341" x1="20.9242" y1="27.3254" x2="14.3339" y2="37.187" gradientUnits="userSpaceOnUse">
<stop/>
<stop offset="0.0001" stop-color="#008BA8"/>
<stop offset="0.0002"/>
<stop offset="0.9999"/>
</linearGradient>
<linearGradient id="paint7_linear_31_341" x1="38.6756" y1="-0.398316" x2="39.1841" y2="19.1618" gradientUnits="userSpaceOnUse">
<stop/>
<stop offset="0.9999"/>
<stop offset="1" stop-color="#034857" stop-opacity="0"/>
</linearGradient>
</defs>
</svg>
